<svg width="269" height="45" viewBox="0 0 269 45" fill="none" xmlns="http://www.w3.org/2000/svg">
<path d="M28.9512 44.9927H16.374C16.2791 36.8294 10.6787 30.1848 2.94253 28.7135C1.99331 28.5237 1.04405 28.4287 0.0473633 28.4287V16.3262C0.949124 16.3262 1.85092 16.2313 2.75268 16.0889C8.40055 16.6584 13.6687 18.8891 18.0826 22.4487C18.8894 23.1131 19.6488 23.7776 20.4082 24.5369C25.8187 29.995 28.8562 37.304 28.9512 44.9927Z" fill="#00B961"/>
<path d="M29.0462 0C28.9513 7.68869 25.8663 14.8553 20.4557 20.3133C19.6963 21.0727 18.8895 21.7846 18.0827 22.4491C13.7637 25.9137 8.54302 28.097 2.99007 28.7139C1.99339 28.8089 0.996683 28.9038 0 28.9038V16.3266C0.0474611 16.3266 0.0474958 16.3266 0.0949569 16.3266C0.996717 16.3266 1.89845 16.2317 2.80022 16.0893C10.6313 14.7604 16.469 8.25823 16.6114 0H29.0462Z" fill="#00D972"/>
<path d="M72.0932 16.3266V28.4292C71.0965 28.4292 70.0998 28.5241 69.1506 28.714C63.6451 28.097 58.3769 25.9137 54.058 22.4491C53.2511 21.7846 52.4443 21.0727 51.6849 20.3133C50.0238 18.6522 48.5525 16.8012 47.366 14.8553C44.6607 10.4414 43.1419 5.3631 43.0945 0H55.6242C55.7191 8.25823 61.6043 14.7604 69.4354 16.0893C70.2897 16.2317 71.1914 16.3266 72.0932 16.3266Z" fill="#00B961"/>
<path d="M30.7073 44.9931H16.374L41.7183 0H55.5769L30.7073 44.9931Z" fill="#02F281"/>
<path d="M72.0937 16.3262V28.4287C71.0971 28.4287 70.1004 28.5237 69.1512 28.7135C61.4625 30.1373 55.862 36.7819 55.7671 44.9927H43.1899C43.2849 37.304 46.3698 29.9475 51.7804 24.5369C52.5398 23.7776 53.2991 23.1131 54.106 22.4487C58.5199 18.8891 63.7881 16.6584 69.4359 16.0889C70.2902 16.2313 71.192 16.3262 72.0937 16.3262Z" fill="#00D972"/>
<path d="M90.3062 5.93126C94.8873 5.93126 98.4459 6.9402 100.982 8.95807C103.518 10.9487 104.786 14.3572 104.786 19.1838C104.786 22.1288 104.118 24.5966 102.782 26.5872C101.445 28.5778 99.6593 30.0503 97.4233 31.0047C95.2145 31.9591 92.774 32.4363 90.1017 32.4363H81.4712V5.93126H90.3062ZM89.0791 27.4461C91.3151 27.4461 93.1012 27.228 94.4374 26.7917C95.7735 26.3281 96.7825 25.4964 97.4642 24.2966C98.1459 23.0968 98.4868 21.3925 98.4868 19.1838C98.4868 17.1386 98.1732 15.5162 97.546 14.3163C96.9461 13.1165 96.0462 12.2576 94.8464 11.7395C93.6466 11.1941 92.1332 10.9214 90.3062 10.9214H87.2794V27.4461H89.0791Z" fill="#28103F"/>
<path d="M124.844 21.5561C124.844 22.1015 124.79 23.0559 124.681 24.4193H112.901C113.064 25.9464 113.569 27.078 114.414 27.8143C115.259 28.5233 116.268 28.8777 117.441 28.8777C118.313 28.8777 119.159 28.755 119.977 28.5096C120.795 28.2642 121.668 27.8688 122.595 27.3234L124.476 30.6775C123.495 31.4137 122.363 31.9864 121.081 32.3954C119.8 32.8044 118.409 33.0089 116.909 33.0089C115.109 33.0089 113.487 32.6817 112.042 32.0273C110.624 31.3728 109.478 30.3366 108.606 28.9186C107.761 27.4734 107.338 25.6192 107.338 23.3559C107.338 21.2835 107.692 19.4974 108.401 17.9976C109.138 16.4978 110.187 15.3662 111.551 14.6027C112.942 13.8119 114.578 13.4165 116.459 13.4165C118.259 13.4165 119.786 13.771 121.04 14.48C122.322 15.1889 123.276 16.157 123.904 17.3841C124.531 18.6111 124.844 20.0018 124.844 21.5561ZM116.582 17.1795C115.628 17.1795 114.85 17.4795 114.25 18.0794C113.678 18.652 113.282 19.5655 113.064 20.8199H119.568V20.6972C119.568 19.4428 119.295 18.543 118.75 17.9976C118.204 17.4522 117.482 17.1795 116.582 17.1795Z" fill="#28103F"/>
<path d="M134.86 33.0089C133.115 33.0089 131.547 32.8044 130.156 32.3954C128.793 31.9591 127.511 31.3183 126.311 30.473L128.643 26.9144C129.652 27.6507 130.674 28.1824 131.711 28.5096C132.747 28.8096 133.742 28.9596 134.697 28.9596C135.596 28.9596 136.251 28.8232 136.66 28.5505C137.096 28.2778 137.314 27.9097 137.314 27.4461C137.314 27.1462 137.233 26.8871 137.069 26.669C136.905 26.4236 136.564 26.1918 136.046 25.9736C135.556 25.7282 134.819 25.4692 133.838 25.1965L132.651 24.8693C130.688 24.3239 129.27 23.6149 128.398 22.7423C127.552 21.8697 127.13 20.6835 127.13 19.1838C127.13 18.0385 127.443 17.0296 128.07 16.157C128.697 15.2844 129.584 14.6163 130.729 14.1527C131.874 13.6619 133.183 13.4165 134.656 13.4165C137.437 13.4165 139.959 14.0846 142.223 15.4207L140.096 18.9793C138.978 18.4066 138.037 18.0112 137.273 17.7931C136.51 17.5749 135.692 17.4659 134.819 17.4659C134.138 17.4659 133.619 17.5886 133.265 17.834C132.938 18.0794 132.774 18.393 132.774 18.7747C132.774 19.0474 132.842 19.2792 132.979 19.4701C133.115 19.6337 133.36 19.7973 133.715 19.9609C134.097 20.0973 134.683 20.2745 135.474 20.4927L136.824 20.8608C138.923 21.4062 140.45 22.1697 141.405 23.1514C142.386 24.133 142.877 25.3737 142.877 26.8735C142.877 28.0461 142.577 29.0959 141.977 30.023C141.405 30.9502 140.505 31.6864 139.278 32.2318C138.078 32.7499 136.605 33.0089 134.86 33.0089Z" fill="#28103F"/>
<path d="M148.571 11.2895C147.944 11.2895 147.358 11.1396 146.812 10.8396C146.267 10.5124 145.831 10.0897 145.503 9.57161C145.176 9.05351 145.013 8.48087 145.013 7.85369C145.013 7.22652 145.176 6.65388 145.503 6.13578C145.831 5.5904 146.267 5.16774 146.812 4.86779C147.358 4.54056 147.944 4.37695 148.571 4.37695C149.226 4.37695 149.825 4.54056 150.371 4.86779C150.943 5.16774 151.393 5.5904 151.721 6.13578C152.048 6.65388 152.211 7.22652 152.211 7.85369C152.211 8.48087 152.048 9.05351 151.721 9.57161C151.393 10.0897 150.943 10.5124 150.371 10.8396C149.825 11.1396 149.226 11.2895 148.571 11.2895ZM145.871 32.4363V14.1527L151.434 13.621V32.4363H145.871Z" fill="#28103F"/>
<path d="M167.04 28.6732C168.677 28.8096 170.04 29.055 171.131 29.4095C172.249 29.764 173.108 30.3093 173.708 31.0456C174.335 31.7546 174.648 32.709 174.648 33.9088C174.648 35.2722 174.212 36.4584 173.339 37.4673C172.494 38.4763 171.267 39.2534 169.658 39.7988C168.077 40.3442 166.209 40.6169 164.055 40.6169C161.273 40.6169 158.983 40.1806 157.183 39.308C155.383 38.4626 154.483 37.1538 154.483 35.3813C154.483 34.3724 154.742 33.5134 155.26 32.8044C155.779 32.1227 156.474 31.5364 157.346 31.0456C156.61 30.4457 156.242 29.7094 156.242 28.8368C156.242 28.2915 156.406 27.7597 156.733 27.2416C157.087 26.7235 157.66 26.1918 158.451 25.6464C157.333 25.0738 156.488 24.3239 155.915 23.3968C155.369 22.4424 155.097 21.3789 155.097 20.2063C155.097 18.652 155.519 17.3704 156.365 16.3615C157.21 15.3525 158.328 14.6163 159.719 14.1527C161.11 13.6619 162.637 13.4165 164.3 13.4165C165.254 13.4165 166.045 13.4846 166.672 13.621L173.135 10.8805L174.73 15.1753L170.885 16.0752C172.276 17.1386 172.971 18.5702 172.971 20.37C172.971 21.8697 172.549 23.0968 171.703 24.0512C170.858 24.9783 169.754 25.6601 168.39 26.0964C167.027 26.5326 165.541 26.7508 163.932 26.7508C163.196 26.7508 162.5 26.7099 161.846 26.6281C161.682 26.9008 161.6 27.1326 161.6 27.3234C161.6 27.5416 161.669 27.7188 161.805 27.8552C161.968 27.9915 162.241 28.1142 162.623 28.2233C163.032 28.3051 163.605 28.3733 164.341 28.4278L167.04 28.6732ZM164.055 17.3841C161.818 17.3841 160.7 18.3112 160.7 20.1654C160.7 21.0926 160.987 21.7743 161.559 22.2106C162.159 22.6196 163.032 22.8241 164.177 22.8241C165.323 22.8241 166.141 22.606 166.631 22.1697C167.15 21.7061 167.409 21.038 167.409 20.1654C167.409 19.2656 167.122 18.5839 166.55 18.1203C165.977 17.6295 165.145 17.3841 164.055 17.3841ZM164.136 36.7311C165.554 36.7311 166.645 36.5538 167.409 36.1993C168.199 35.8449 168.595 35.354 168.595 34.7268C168.595 34.3451 168.472 34.0451 168.227 33.827C168.008 33.6088 167.613 33.4316 167.04 33.2952C166.495 33.1589 165.704 33.0362 164.668 32.9271L162.296 32.7226C161.887 32.6953 161.3 32.5999 160.537 32.4363C160.291 32.818 160.101 33.1998 159.964 33.5816C159.828 33.9633 159.76 34.3042 159.76 34.6041C159.76 35.3131 160.073 35.8449 160.7 36.1993C161.328 36.5538 162.473 36.7311 164.136 36.7311Z" fill="#28103F"/>
<path d="M189.128 13.4165C191.01 13.4165 192.428 13.8937 193.382 14.8481C194.336 15.7752 194.814 17.1386 194.814 18.9384V32.4363H189.251V20.5745C189.251 19.811 189.169 19.2247 189.005 18.8156C188.869 18.3794 188.624 18.0658 188.269 17.8749C187.915 17.684 187.41 17.5886 186.756 17.5886C185.665 17.5886 184.383 18.0249 182.911 18.8975V32.4363H177.348V14.1527L182.911 13.621V15.4207C183.92 14.7935 184.929 14.3027 185.938 13.9482C186.974 13.5937 188.037 13.4165 189.128 13.4165Z" fill="#28103F"/>
<path d="M212.675 18.6929C214.775 19.0202 216.342 19.7701 217.379 20.9426C218.442 22.1151 218.974 23.5604 218.974 25.2783C218.974 26.6145 218.647 27.8279 217.992 28.9186C217.365 29.9821 216.329 30.8411 214.884 31.4955C213.438 32.1227 211.584 32.4363 209.321 32.4363H200.731V5.93126H209.198C211.025 5.93126 212.593 6.19031 213.902 6.70842C215.211 7.22652 216.206 7.99004 216.888 8.99897C217.597 9.98064 217.951 11.1805 217.951 12.5984C217.951 14.0164 217.529 15.2707 216.683 16.3615C215.865 17.4522 214.529 18.2294 212.675 18.6929ZM202.981 7.85369V17.9567H208.871C210.834 17.9567 212.457 17.534 213.738 16.6887C215.02 15.8161 215.661 14.4527 215.661 12.5984C215.661 11.6713 215.429 10.8532 214.965 10.1443C214.502 9.43527 213.806 8.87626 212.879 8.46724C211.952 8.05821 210.821 7.85369 209.484 7.85369H202.981ZM209.607 30.5139C212.034 30.5139 213.806 30.023 214.924 29.0414C216.07 28.0597 216.642 26.7917 216.642 25.2374C216.642 23.5195 216.042 22.197 214.843 21.2698C213.643 20.3154 211.911 19.8382 209.648 19.8382H202.981V30.5139H209.607Z" fill="#28103F"/>
<path d="M238.092 14.8481V15.0526L230.239 35.2995C229.503 37.181 228.685 38.5172 227.785 39.308C226.912 40.0988 225.794 40.4941 224.431 40.4941C223.394 40.4941 222.345 40.2896 221.281 39.8806L221.895 38.2036C222.685 38.5308 223.49 38.6944 224.308 38.6944C224.881 38.6944 225.385 38.599 225.821 38.4081C226.258 38.2172 226.667 37.8764 227.048 37.3855C227.43 36.8947 227.812 36.1857 228.194 35.2586L229.298 32.4363H228.603L221.363 15.0526V14.8481H223.613L228.276 26.3418C229.039 28.2233 229.598 29.6822 229.953 30.7184L231.589 26.3009L235.965 14.8481H238.092Z" fill="#28103F"/>
<path d="M252.047 31.9046C250.738 32.559 249.429 32.8862 248.12 32.8862C246.429 32.8862 245.134 32.3818 244.234 31.3728C243.362 30.3366 242.925 28.905 242.925 27.078V16.566H239.162V14.8481H242.925V10.7169L245.052 10.3897V14.8481H251.556L251.31 16.566H245.052V26.7508C245.052 28.1688 245.311 29.2459 245.829 29.9821C246.347 30.6911 247.166 31.0456 248.284 31.0456C249.265 31.0456 250.315 30.8002 251.433 30.3093L252.047 31.9046Z" fill="#28103F"/>
<path d="M269 21.8425C269 22.6332 268.973 23.2877 268.918 23.8058H255.911C255.938 26.3145 256.456 28.1551 257.465 29.3277C258.502 30.473 259.933 31.0456 261.76 31.0456C262.633 31.0456 263.41 30.9638 264.092 30.8002C264.773 30.6093 265.36 30.3911 265.85 30.1457C266.369 29.873 266.955 29.5186 267.609 29.0823L268.468 30.6366C267.459 31.3455 266.409 31.9046 265.319 32.3136C264.255 32.6953 263.055 32.8862 261.719 32.8862C259.292 32.8862 257.356 32.1363 255.911 30.6366C254.493 29.1368 253.784 26.819 253.784 23.6831C253.784 22.1288 254.084 20.6563 254.684 19.2656C255.284 17.8476 256.197 16.6887 257.425 15.7888C258.652 14.889 260.179 14.439 262.006 14.439C263.56 14.439 264.855 14.7663 265.891 15.4207C266.955 16.0752 267.732 16.9614 268.223 18.0794C268.741 19.1701 269 20.4245 269 21.8425ZM262.006 16.1161C260.779 16.1161 259.742 16.4024 258.897 16.975C258.052 17.5477 257.384 18.2839 256.893 19.1838C256.429 20.0836 256.129 21.0653 255.993 22.1288H266.955V21.8016C266.955 20.0018 266.546 18.6111 265.728 17.6295C264.91 16.6205 263.669 16.1161 262.006 16.1161Z" fill="#28103F"/>
</svg>
