<?xml version="1.0" encoding="UTF-8"?>
<svg xmlns="http://www.w3.org/2000/svg" width="101" height="46" viewBox="0 0 101 46" fill="none">
  <path fill-rule="evenodd" clip-rule="evenodd" d="M14.3913 5.43445H2.45633V11.4325H14.3913V5.43445ZM14.3913 12.7178H5.21058V18.7158H14.3913V12.7178ZM18.5226 18.7158V12.7178H27.7035V18.7158H18.5226ZM14.3913 20.0011H1.53825V25.9991H14.3913V20.0011ZM18.5226 25.9991V20.0011H31.3759V25.9991H18.5226ZM14.3913 27.2845H6.5877V33.2825H14.3913V27.2845ZM18.5226 33.2825V27.2845H26.3264V33.2825H18.5226ZM14.3913 34.5678H0.161133V40.5658H14.3913V34.5678ZM18.5226 40.5658V34.5678H32.753V40.5658H18.5226ZM18.5226 11.4325V5.43445H30.4578V11.4325H18.5226Z" fill="#DAEEF4"></path>
  <path fill-rule="evenodd" clip-rule="evenodd" d="M15.7686 44.85V1.14999H17.1457V44.85H15.7686Z" fill="#27B2D7"></path>
  <path d="M45.3647 28.8385H48.3566L49.5388 25.152H56.391L57.5853 28.8385H60.5772L55.1002 11.8235H50.8417L45.3647 28.8385ZM50.3953 22.4933L52.9408 14.5767L55.5224 22.4933H50.3953Z" fill="#0085A8"></path>
  <path d="M62.2899 28.8385H65.1973V11.4691H62.2899V28.8385Z" fill="#0085A8"></path>
  <path d="M68.3427 14.1395H71.2499V11.5281H68.3427V14.1395ZM68.3427 28.8385H71.2499V16.0773H68.3427V28.8385Z" fill="#0085A8"></path>
  <path d="M79.3774 29.193C80.0534 29.193 80.6686 29.1024 81.2231 28.9212C81.7862 28.7479 82.2892 28.5037 82.7315 28.1886V29.4056C82.7474 30.3116 82.4622 30.9968 81.8747 31.4616C81.2958 31.9264 80.5518 32.1588 79.6428 32.1588C79.1285 32.1588 78.642 32.0445 78.1832 31.8161C77.7251 31.5877 77.3752 31.245 77.1336 30.7881L74.4555 32.0879C74.9625 32.9544 75.678 33.6319 76.6029 34.1202C77.5357 34.6165 78.545 34.8647 79.6309 34.8647C81.103 34.8647 82.3652 34.5692 83.4187 33.9784C84.4809 33.3955 85.1602 32.4857 85.4579 31.2489C85.5219 30.9654 85.5661 30.6779 85.5906 30.3864C85.6229 30.0949 85.6388 29.7838 85.6388 29.453V16.0773H83.0933V16.9989C82.6345 16.5893 82.1038 16.2742 81.5011 16.0537C80.8977 15.8331 80.2263 15.7228 79.4863 15.7228C78.2559 15.7228 77.1858 16.0143 76.2774 16.5972C75.3764 17.1801 74.6766 17.9796 74.1782 18.9958C73.6792 20.012 73.4303 21.166 73.4303 22.4579C73.4303 23.734 73.6752 24.8802 74.1663 25.8963C74.6568 26.9125 75.348 27.716 76.2411 28.3068C77.1336 28.8976 78.1793 29.193 79.3774 29.193ZM79.8237 26.6407C79.0678 26.6407 78.4446 26.4556 77.9542 26.0854C77.4637 25.7073 77.0973 25.2031 76.8564 24.5729C76.6234 23.9427 76.5065 23.2378 76.5065 22.4579C76.5065 21.6859 76.6273 20.9848 76.8683 20.3547C77.1178 19.7166 77.4914 19.2124 77.9905 18.8422C78.4968 18.4641 79.1404 18.275 79.9207 18.275C81.0304 18.275 81.8344 18.661 82.3335 19.433C82.8398 20.205 83.0933 21.2133 83.0933 22.4579C83.0933 23.6946 82.8398 24.7029 82.3335 25.4828C81.8344 26.2548 80.998 26.6407 79.8237 26.6407Z" fill="#0085A8"></path>
  <path d="M88.2878 28.8385H91.2314V22.2806C91.2314 21.2487 91.3799 20.4531 91.6776 19.8938C91.9833 19.3266 92.3694 18.9367 92.8361 18.724C93.3101 18.5035 93.7927 18.3932 94.2838 18.3932C94.975 18.3932 95.5262 18.5429 95.9361 18.8422C96.3467 19.1337 96.6477 19.5078 96.8412 19.9647C97.0418 20.4137 97.1706 20.8824 97.2273 21.3708C97.2914 21.8592 97.3237 22.3003 97.3237 22.6942V28.8385H100.267V21.7135C100.267 21.4141 100.239 21.0163 100.183 20.5201C100.135 20.0238 100.022 19.5 99.8448 18.9486C99.6678 18.3972 99.3945 17.8772 99.0249 17.3889C98.6545 16.8926 98.1522 16.4909 97.5165 16.1837C96.8894 15.8686 96.0972 15.711 95.14 15.711C94.1993 15.711 93.3709 15.8725 92.6546 16.1954C91.9469 16.5105 91.3561 16.9438 90.8815 17.4952V16.0773H88.2878V28.8385Z" fill="#0085A8"></path>
</svg>
