<svg xmlns="http://www.w3.org/2000/svg" viewBox="0 0 525.06 458.61"><g id="Layer_2" data-name="Layer 2"><g id="Layer_1-2" data-name="Layer 1"><path d="M133.5,117.43h-.29l-7.81,63.9H142Zm0,0h-.29l-7.81,63.9H142Zm0,0h-.29l-7.81,63.9H142Zm156.85,8.09q0-9.88-2.42-14.08c-1.63-2.81-4.4-4.21-8.36-4.21h-5.71v97.3h6.37c3.56,0,6.14-1.15,7.77-3.46s2.42-6.56,2.42-12.73ZM133.5,117.43h-.29l-7.81,63.9H142Zm156.85,8.09q0-9.88-2.42-14.08c-1.63-2.81-4.4-4.21-8.36-4.21h-5.71v97.3h6.37c3.56,0,6.14-1.15,7.77-3.46s2.42-6.56,2.42-12.73ZM133.5,117.43h-.29l-7.81,63.9H142Zm156.85,8.09q0-9.88-2.42-14.08c-1.63-2.81-4.4-4.21-8.36-4.21h-5.71v97.3h6.37c3.56,0,6.14-1.15,7.77-3.46s2.42-6.56,2.42-12.73Zm111.37,0c0-6.59-.82-11.29-2.42-14.08s-4.4-4.21-8.36-4.21h-5.71v97.3h6.36c3.57,0,6.15-1.15,7.78-3.46s2.42-6.56,2.42-12.73Zm0,0c0-6.59-.82-11.29-2.42-14.08s-4.4-4.21-8.36-4.21h-5.71v97.3h6.36c3.57,0,6.15-1.15,7.78-3.46s2.42-6.56,2.42-12.73ZM133.5,117.43h-.29l-7.81,63.9H142Zm156.85,8.09q0-9.88-2.42-14.08c-1.63-2.81-4.4-4.21-8.36-4.21h-5.71v97.3h6.37c3.56,0,6.14-1.15,7.77-3.46s2.42-6.56,2.42-12.73ZM133.5,117.43h-.29l-7.81,63.9H142ZM281.64,264.12h-.28L273.55,328h16.62Zm8.71-138.6q0-9.88-2.42-14.08c-1.63-2.81-4.4-4.21-8.36-4.21h-5.71v97.3h6.37c3.56,0,6.14-1.15,7.77-3.46s2.42-6.56,2.42-12.73Zm111.37,0c0-6.59-.82-11.29-2.42-14.08s-4.4-4.21-8.36-4.21h-5.71v97.3h6.36c3.57,0,6.15-1.15,7.78-3.46s2.42-6.56,2.42-12.73Zm0,0c0-6.59-.82-11.29-2.42-14.08s-4.4-4.21-8.36-4.21h-5.71v97.3h6.36c3.57,0,6.15-1.15,7.78-3.46s2.42-6.56,2.42-12.73ZM281.64,264.12h-.28L273.55,328h16.62ZM133.5,117.43h-.29l-7.81,63.9H142Zm156.85,8.09q0-9.88-2.42-14.08c-1.63-2.81-4.4-4.21-8.36-4.21h-5.71v97.3h6.37c3.56,0,6.14-1.15,7.77-3.46s2.42-6.56,2.42-12.73ZM133.5,117.43h-.29l-7.81,63.9H142ZM281.64,264.12h-.28L273.55,328h16.62Zm8.71-138.6q0-9.88-2.42-14.08c-1.63-2.81-4.4-4.21-8.36-4.21h-5.71v97.3h6.37c3.56,0,6.14-1.15,7.77-3.46s2.42-6.56,2.42-12.73Zm111.37,0c0-6.59-.82-11.29-2.42-14.08s-4.4-4.21-8.36-4.21h-5.71v97.3h6.36c3.57,0,6.15-1.15,7.78-3.46s2.42-6.56,2.42-12.73Zm0,0c0-6.59-.82-11.29-2.42-14.08s-4.4-4.21-8.36-4.21h-5.71v97.3h6.36c3.57,0,6.15-1.15,7.78-3.46s2.42-6.56,2.42-12.73ZM281.64,264.12h-.28L273.55,328h16.62ZM133.5,117.43h-.29l-7.81,63.9H142Zm156.85,8.09q0-9.88-2.42-14.08c-1.63-2.81-4.4-4.21-8.36-4.21h-5.71v97.3h6.37c3.56,0,6.14-1.15,7.77-3.46s2.42-6.56,2.42-12.73ZM0,0V458.61H458.61V0ZM327.34,92.35h19.37V219.57H327.34Zm-72.84,0h28.55q14,0,20.34,8.27T309.72,125l.07,57.38q0,19.25-6.36,28.2t-21,9H254.5Zm-134.24,0h25.59l19.31,127.22H147.09l-3-22.69H123.53l-2.76,22.69H102.13ZM44.43,211.58q-7-9.44-7-27.14V129q0-28.41,14.9-35.5a30.91,30.91,0,0,1,13.29-2.6q26.82,0,26.82,33.83v17.49H73.73V126q0-9.83-1.66-14.06c-1.1-2.81-3.27-4.23-6.5-4.23a6.74,6.74,0,0,0-6.72,4.47c-1.25,3-1.89,7.59-1.89,13.75v59.42c0,6.83.6,11.73,1.82,14.66a6.55,6.55,0,0,0,6.58,4.42,6.56,6.56,0,0,0,6.57-4.49q1.8-4.47,1.8-14.81V166.87h19v18q0,18.42-6.58,27.29T65.5,221Q51.4,221,44.43,211.58Zm83.64,120q0,18.44-6.57,27.29t-20.68,8.85q-14.1,0-21.06-9.43t-7-27.15V275.7q0-28.42,14.89-35.51A31,31,0,0,1,101,237.6q26.83,0,26.83,33.82v17.49H109.06V272.66c0-6.56-.55-11.24-1.66-14.07s-3.27-4.22-6.51-4.22a6.71,6.71,0,0,0-6.71,4.47q-1.89,4.5-1.89,13.75V332q0,10.26,1.82,14.67a7.08,7.08,0,0,0,13.14-.08q1.81-4.47,1.81-14.8V313.57h19Zm59,34.69H143.23V239H162.6V349.78h24.51Zm8.61-146.69H177.87V92.35h15.18l27,76.33L218.64,134V92.35h17.42V219.57H222.33l-27.69-79,1.08,33.4Zm45.45,146.69H197.66V239H240.3v16.7H217v37h22.13v16.33H217v40.48h24.14Zm54.06,0-3-22.69H271.67l-2.75,22.69H250.27L268.4,239H294l19.32,127.22Zm89,0H370.47l-27.69-79,1.08,33.4v45.61H326V239h15.18l27,76.33-1.38-34.69V239h17.43Zm30.58-155.65q-6.36,9-21,9H365.86V92.35h28.56q14,0,20.34,8.27T421.09,125l.07,57.38Q421.16,201.66,414.79,210.61ZM399.3,111.44c-1.63-2.81-4.4-4.21-8.36-4.21h-5.71v97.3h6.36c3.57,0,6.15-1.15,7.78-3.46s2.42-6.56,2.42-12.73l-.07-62.82C401.72,118.93,400.9,114.23,399.3,111.44ZM288,201.07q2.42-3.48,2.42-12.73l-.07-62.82q0-9.88-2.42-14.08c-1.63-2.81-4.4-4.21-8.36-4.21h-5.71v97.3h6.37C283.79,204.53,286.37,203.38,288,201.07Zm-6.64,63.05L273.55,328h16.62l-8.53-63.9ZM133.5,117.43h-.29l-7.81,63.9H142Zm156.85,8.09q0-9.88-2.42-14.08c-1.63-2.81-4.4-4.21-8.36-4.21h-5.71v97.3h6.37c3.56,0,6.14-1.15,7.77-3.46s2.42-6.56,2.42-12.73ZM133.5,117.43h-.29l-7.81,63.9H142ZM281.64,264.12h-.28L273.55,328h16.62Zm120.08-138.6c0-6.59-.82-11.29-2.42-14.08s-4.4-4.21-8.36-4.21h-5.71v97.3h6.36c3.57,0,6.15-1.15,7.78-3.46s2.42-6.56,2.42-12.73Zm0,0c0-6.59-.82-11.29-2.42-14.08s-4.4-4.21-8.36-4.21h-5.71v97.3h6.36c3.57,0,6.15-1.15,7.78-3.46s2.42-6.56,2.42-12.73Zm-111.37,0q0-9.88-2.42-14.08c-1.63-2.81-4.4-4.21-8.36-4.21h-5.71v97.3h6.37c3.56,0,6.14-1.15,7.77-3.46s2.42-6.56,2.42-12.73Zm-8.71,138.6h-.28L273.55,328h16.62ZM133.5,117.43h-.29l-7.81,63.9H142Zm156.85,8.09q0-9.88-2.42-14.08c-1.63-2.81-4.4-4.21-8.36-4.21h-5.71v97.3h6.37c3.56,0,6.14-1.15,7.77-3.46s2.42-6.56,2.42-12.73ZM133.5,117.43h-.29l-7.81,63.9H142Zm268.22,8.09c0-6.59-.82-11.29-2.42-14.08s-4.4-4.21-8.36-4.21h-5.71v97.3h6.36c3.57,0,6.15-1.15,7.78-3.46s2.42-6.56,2.42-12.73Zm0,0c0-6.59-.82-11.29-2.42-14.08s-4.4-4.21-8.36-4.21h-5.71v97.3h6.36c3.57,0,6.15-1.15,7.78-3.46s2.42-6.56,2.42-12.73Zm-111.37,0q0-9.88-2.42-14.08c-1.63-2.81-4.4-4.21-8.36-4.21h-5.71v97.3h6.37c3.56,0,6.14-1.15,7.77-3.46s2.42-6.56,2.42-12.73ZM133.5,117.43h-.29l-7.81,63.9H142Zm156.85,8.09q0-9.88-2.42-14.08c-1.63-2.81-4.4-4.21-8.36-4.21h-5.71v97.3h6.37c3.56,0,6.14-1.15,7.77-3.46s2.42-6.56,2.42-12.73ZM133.5,117.43h-.29l-7.81,63.9H142Zm156.85,8.09q0-9.88-2.42-14.08c-1.63-2.81-4.4-4.21-8.36-4.21h-5.71v97.3h6.37c3.56,0,6.14-1.15,7.77-3.46s2.42-6.56,2.42-12.73ZM133.5,117.43h-.29l-7.81,63.9H142Zm0,0h-.29l-7.81,63.9H142Zm0,0h-.29l-7.81,63.9H142Z"/><path d="M518.85,1.84l-9.17,21.28L500.91,1.84h-6.6V29.17H499V8.68l8.71,20.49h3.71L520.16,9l.08,20.18h4.82V1.84Zm-28.73,0h-19V6h7L478,29.17h5.2L483.13,6h7Z"/></g></g></svg>