<svg width="237" height="62" viewBox="0 0 237 62" fill="none" xmlns="http://www.w3.org/2000/svg">
<path d="M49.882 6.23968C44.5579 2.28074 38.1871 0.1875 31.5434 0.1875C18.5744 0.1875 6.92513 8.37842 2.55664 20.5283C2.10159 21.8024 1.55553 23.8047 1.41901 24.5782C6.28806 25.3518 7.42569 21.5749 7.5167 21.2564C11.4301 11.5638 20.9862 5.10205 31.5434 5.10205C37.1405 5.10205 42.4646 6.87675 46.9696 10.1986C53.6589 15.1587 57.4813 22.7125 57.4813 31.04C57.4813 45.3286 45.8775 56.9324 31.5889 56.9324C18.1194 56.9324 7.01614 46.6027 5.78751 33.4517H11.8852C11.9762 34.3163 12.1582 35.1354 12.3857 35.9545C14.57 44.5095 22.3969 50.8802 31.6344 50.8802C42.6011 50.8802 51.4746 41.9612 51.4746 31.04C51.4746 29.6748 50.3825 28.5827 49.0174 28.5827H16.7997C17.9829 21.4839 24.1261 16.0688 31.5889 16.0688C33.8642 16.0688 36.0484 16.5693 38.0506 17.525C38.0506 17.525 38.0961 17.5705 38.1871 17.5705C38.2327 17.5705 38.2782 17.616 38.3237 17.6615C38.4147 17.707 38.4602 17.7525 38.5967 17.798C39.6433 18.253 42.0096 18.9356 44.3758 16.4783C44.5124 16.3418 44.6944 16.1598 44.8309 15.9778C44.3758 15.6592 43.3747 14.9767 42.4191 14.3851C42.3736 14.3396 42.3281 14.3396 42.2826 14.2941C42.0551 14.1576 41.8276 14.0211 41.6455 13.93C41.6455 13.93 41.4635 13.839 41.3725 13.748C38.4147 12.1098 35.1383 11.1997 31.7254 11.1997C21.5778 11.1997 13.2048 18.7991 12.0217 28.6282H3.37573C2.01058 28.6282 0.918457 29.7203 0.918457 31.0855C0.918457 48.0589 14.752 61.8924 31.7254 61.8924C48.6988 61.8924 62.5324 48.0589 62.5324 31.0855C62.3504 21.3019 57.7088 12.0188 49.882 6.23968ZM46.2871 33.4517C45.1039 40.5505 38.9607 45.9656 31.5434 45.9656C25.0362 45.9656 19.4845 41.7792 17.4368 35.9545C17.1638 35.1354 16.9363 34.3163 16.7997 33.4517H46.2871Z" fill="#B8D65A"/>
<path d="M87.979 21.084C90.9114 21.084 93.503 22.3115 95.6171 24.7666C97.1174 26.8126 97.8676 28.7221 97.8676 30.5634L97.7994 33.0185V41.7478C97.7994 43.3845 96.5718 45.1577 94.0485 47.0672C92.139 48.2948 90.0931 48.9767 87.979 48.9767C84.3645 48.9767 81.3638 47.34 79.0451 44.1347C78.6359 43.4527 78.4313 42.9072 78.4313 42.7026V42.498C78.4313 41.8842 78.8405 41.475 79.7271 41.2704H79.9317C80.6136 41.2704 81.1592 41.8842 81.5684 43.1118C83.2733 45.2941 85.4557 46.3852 87.979 46.3852C91.0478 46.3852 93.3666 44.9531 94.9351 42.157L95.0715 41.2022V37.9287C92.9574 39.9065 90.6387 40.8612 88.1836 40.8612H87.638C84.9783 40.8612 82.5232 39.6337 80.2045 37.1104C78.7723 35.1327 78.0903 33.0867 78.0903 30.9726C78.0903 27.7673 79.5225 25.0394 82.3186 22.8571C84.1599 21.6978 86.0694 21.084 87.979 21.084ZM80.8864 30.768V31.109C80.8864 34.0415 82.455 36.2238 85.5239 37.656C86.3422 37.9287 87.0924 37.9969 87.7744 37.9969H88.1836C91.0478 37.9969 93.2302 36.4284 94.7305 33.3595C94.9351 32.473 95.0715 31.7228 95.0715 31.1772V30.8362C95.0715 27.9037 93.5029 25.7214 90.3659 24.2893C89.4111 24.0847 88.6609 23.9483 88.1154 23.9483H87.8426C84.9783 23.9483 82.796 25.4486 81.2956 28.5175C81.0228 29.3359 80.8864 30.086 80.8864 30.768Z" fill="#949292"/>
<path d="M101.822 20.8789C102.777 21.0835 103.255 21.5609 103.255 22.1065V23.7432C105.369 21.8337 107.687 20.8789 110.143 20.8789C111.438 20.8789 112.87 21.2199 114.303 21.8337C114.712 22.2429 114.916 22.652 114.916 22.993V23.0612C114.78 23.9478 114.303 24.4252 113.552 24.4252H113.484C112.12 24.016 111.165 23.8114 110.484 23.8114H110.074C107.21 23.8114 105.096 25.3117 103.8 28.2442C103.527 29.0626 103.391 29.9492 103.391 30.9721V39.6332C103.391 40.3834 102.914 40.7926 101.959 40.9289H101.891C101.14 40.9289 100.663 40.4516 100.527 39.4968V22.5838C100.458 21.4927 100.936 20.8789 101.822 20.8789Z" fill="#949292"/>
<path d="M123.373 21.0156C127.193 21.0156 130.193 22.857 132.307 26.4714C133.058 27.9036 133.399 29.4721 133.399 31.1088V31.518C133.262 32.4728 132.785 32.9502 132.035 32.9502H116.69C117.236 34.8597 118.463 36.36 120.373 37.383C121.464 37.7922 122.555 37.9968 123.51 37.9968C124.669 37.9968 125.897 37.6558 127.397 36.9056H127.806C128.693 37.042 129.102 37.5194 129.102 38.2014V38.406C129.102 39.6335 127.329 40.4519 123.851 40.8611H123.373C119.827 40.8611 116.963 39.1561 114.781 35.8145C113.894 34.2459 113.485 32.6092 113.485 30.8361C113.485 27.2216 115.19 24.2891 118.668 22.1068C120.373 21.4248 121.941 21.0156 123.373 21.0156ZM116.486 30.1541H130.466C130.466 29.1311 129.852 27.8354 128.693 26.2668C127.124 24.7665 125.556 24.0163 123.987 24.0163H123.169C120.85 24.0163 118.941 25.1757 117.44 27.4262C116.895 28.3127 116.622 29.1993 116.486 30.1541Z" fill="#949292"/>
<path d="M144.515 21.0156C148.334 21.0156 151.334 22.857 153.448 26.4714C154.199 27.9036 154.54 29.4721 154.54 31.1088V31.518C154.403 32.4728 153.926 32.9502 153.176 32.9502H137.763C138.309 34.8597 139.536 36.36 141.446 37.383C142.537 37.7922 143.628 37.9968 144.583 37.9968C145.742 37.9968 146.97 37.6558 148.47 36.9056H148.879C149.766 37.042 150.175 37.5194 150.175 38.2014V38.406C150.175 39.6335 148.402 40.4519 144.924 40.8611H144.446C140.9 40.8611 138.036 39.1561 135.853 35.8145C134.967 34.2459 134.558 32.6092 134.558 30.8361C134.558 27.2216 136.263 24.2891 139.741 22.1068C141.446 21.4248 143.014 21.0156 144.515 21.0156ZM137.558 30.1541H151.539C151.539 29.1311 150.925 27.8354 149.766 26.2668C148.197 24.7665 146.629 24.0163 145.06 24.0163H144.242C141.923 24.0163 140.014 25.1757 138.513 27.4262C137.968 28.3127 137.695 29.1993 137.558 30.1541Z" fill="#949292"/>
<path d="M157.949 21.0838C158.836 21.2884 159.313 21.7658 159.313 22.3114V23.8799C161.427 21.9704 163.678 21.0156 166.201 21.0156C168.929 21.0156 171.384 22.175 173.498 24.4255C175.067 26.335 175.817 28.3127 175.817 30.4269V39.7017C175.817 40.3155 175.339 40.7247 174.453 40.9293H174.385C173.43 40.7929 173.021 40.3155 173.021 39.5653V31.4498C173.021 27.8354 171.452 25.3803 168.315 24.2209C167.565 24.0163 166.883 23.9481 166.269 23.9481H166.064C163.405 23.9481 161.427 25.3121 159.927 28.04C159.518 28.8583 159.381 30.2223 159.381 31.9954V39.6335C159.381 40.3155 158.904 40.7929 158.017 40.9293H157.881C157.131 40.9293 156.653 40.4519 156.517 39.4971V22.7206C156.653 21.6294 157.131 21.0838 157.949 21.0838Z" fill="#949292"/>
<path d="M201.664 13.1045H201.937C202.823 13.3091 203.233 13.6501 203.233 14.2638V28.7899L203.301 31.3132C203.301 33.2227 202.482 35.2687 200.982 37.3146C198.732 39.7015 196.276 40.929 193.48 40.929H192.867C190.139 40.929 187.615 39.6333 185.297 37.11C183.864 35.0641 183.182 33.0181 183.182 30.8358C183.182 27.5623 184.615 24.8344 187.547 22.5839C189.388 21.3564 191.298 20.7426 193.276 20.7426C195.799 20.7426 198.254 21.7656 200.505 23.7433V15.5596L200.436 14.4002C200.709 13.5137 201.118 13.1045 201.664 13.1045ZM186.115 30.6994V31.0404C186.115 34.0411 187.684 36.2916 190.821 37.7238C191.639 37.9966 192.389 38.0647 193.071 38.0647H193.549C196.481 38.0647 198.663 36.4962 200.164 33.3591C200.436 32.4044 200.505 31.6542 200.505 31.1768V30.6994C200.505 27.6987 198.936 25.5164 195.731 24.0161C194.776 23.7433 194.026 23.6751 193.48 23.6751H193.208C190.275 23.6751 188.093 25.2436 186.592 28.3125C186.251 29.1991 186.115 29.9493 186.115 30.6994Z" fill="#B8D65A"/>
<path d="M215.371 21.1514C217.894 21.1514 220.213 22.1061 222.327 24.0157C224.305 26.0616 225.259 28.4485 225.259 31.04C225.259 34.7227 223.486 37.6551 220.008 39.7693C218.508 40.5194 217.008 40.9286 215.575 40.9286H214.962C212.302 40.9286 209.847 39.7011 207.528 37.1778C206.096 35.2 205.414 33.1541 205.414 31.04C205.414 27.8347 206.846 25.1068 209.642 22.9245C211.552 21.7651 213.393 21.1514 215.371 21.1514ZM208.346 30.8354V31.1764C208.346 33.8361 209.642 35.882 212.165 37.3142C213.052 37.7915 214.075 38.0643 215.098 38.0643H215.507C218.235 38.0643 220.349 36.6322 221.781 33.8361C222.122 32.9495 222.259 32.063 222.259 31.2446V30.8354C222.259 28.6531 221.236 26.7436 219.258 25.2432C218.099 24.4248 216.735 24.0157 215.234 24.0157C212.234 24.0157 210.051 25.5842 208.687 28.7213C208.483 29.4715 208.346 30.2216 208.346 30.8354Z" fill="#B8D65A"/>
<path d="M229.965 13.9229H230.238C231.125 14.1274 231.534 14.4684 231.534 15.0822V21.4928H234.466L235.08 21.4246C235.762 21.4246 236.171 21.902 236.444 22.8567C236.444 23.5387 236.035 23.9479 235.217 24.2889L234.125 24.2207H231.534V34.7231C231.534 36.5644 232.148 37.6556 233.307 38.0647L234.944 38.2011H235.762C236.376 38.2011 236.785 38.6785 236.99 39.5651V39.6333C236.853 40.5198 236.376 40.9972 235.626 40.9972H234.125C231.875 40.9972 230.17 39.7697 229.079 37.3146C228.874 36.7008 228.806 36.0188 228.806 35.2004V24.2889H227.374L226.214 24.3571C225.396 24.0843 224.987 23.6069 224.987 22.9249C225.123 22.0383 225.601 21.561 226.283 21.561V21.4928L227.033 21.561H228.806V15.4914C228.806 14.4684 229.215 13.9229 229.965 13.9229Z" fill="#B8D65A"/>
</svg>
