<svg xmlns="http://www.w3.org/2000/svg" viewBox="0 0 205.78 50.59"><defs><style>.cls-1{fill:#3f2826;}</style></defs><g id="Layer_2" data-name="Layer 2"><g id="Content"><path class="cls-1" d="M14.94,45.39c-2.63,3.18-5.58,5.2-9.14,5.2C1.75,50.59,0,48.4,0,46s2.63-5.09,7-5.09a13.79,13.79,0,0,1,7.44,2.51C20,35.82,23.8,22.09,28.67,13.61A32,32,0,0,1,34.41,6c-.82-.06-1.64-.11-2.51-.11C16.69,5.84,2,14,2,24c0,3.56,2.08,6.57,6.08,6.57,4.81,0,10.45-4.71,10.45-10.67A5.89,5.89,0,0,0,18.22,18c0-.17.38-.44.55-.44a3,3,0,0,1,1.09,2.57C19.86,26.14,14,32.1,8,32.1c-4.7,0-7.71-3.56-7.71-7.93,0-11,15-19.92,31.57-19.92a34.92,34.92,0,0,1,4.21.27A18.28,18.28,0,0,1,40,2.28a2.36,2.36,0,0,1,.88-.22c.27,0,.49.44.49.71s-.6.5-.6.5A14,14,0,0,0,38.08,4.8c8.15,1.42,12.36,5.91,12.36,11.54,0,10.89-10.23,17.13-19.09,17.13-3.94,0-6.35-1.37-6.35-1.7s.33-.77.55-.77a14,14,0,0,0,5.91.93c7.44,0,17.29-5.52,17.29-15.53,0-5.25-4.43-9.19-12.31-10.29a33,33,0,0,0-6.13,8C26,21.54,22,36.09,15.76,44.41A25.33,25.33,0,0,1,18.55,47a1,1,0,0,1,.27.5.83.83,0,0,1-.6.6c-.22,0-.49-.33-.49-.33A24.06,24.06,0,0,0,14.94,45.39Zm-1.37-.93a12.63,12.63,0,0,0-6.68-2c-3.28,0-5.47,1.8-5.47,3.56s1.43,3,4.32,3S11.33,47.2,13.57,44.46Z"/><path class="cls-1" d="M66.37,31.5s.27-.33.54-.33a.7.7,0,0,1,.61.6,1.22,1.22,0,0,1-.28.55c-2.79,3-5,3.72-8,3.72a4.9,4.9,0,0,1-.93-.06,9.75,9.75,0,0,1-5.74,2.47,4,4,0,0,1-4.27-4.16A10,10,0,0,1,51.05,28c.05-3.62,3.5-6.9,7.49-6.9,3.4,0,5,2.3,5,5.31a12.51,12.51,0,0,1-3.83,8.26h0A8.51,8.51,0,0,0,66.37,31.5ZM56.3,35.38a9.14,9.14,0,0,1-4.87-5,9.16,9.16,0,0,0-1.15,4.1,2.12,2.12,0,0,0,2.35,2.35A6.48,6.48,0,0,0,56.3,35.38Zm1.31-1c2.3-2,4.16-5.14,4.16-8,0-2-1.2-3.61-3.06-3.61A6.39,6.39,0,0,0,53.13,26a9.19,9.19,0,0,1,5.41-2.19c.71,0,1,.16,1,.49s-.38.55-.76.6a9.36,9.36,0,0,0-6.19,3.61A6.74,6.74,0,0,0,57.61,34.34Z"/><path class="cls-1" d="M82.56,26.46c0,.17-.11.33-.38.66a48.61,48.61,0,0,0-3.56,5.09A3.94,3.94,0,0,0,78,34.34a1.72,1.72,0,0,0,1.86,1.75c3.61,0,7.44-4.59,7.44-4.59s.27-.33.54-.33a.7.7,0,0,1,.61.6,1.22,1.22,0,0,1-.28.55s-4.87,5.3-8.48,5.3a3.33,3.33,0,0,1-3.44-3.17c-1.32,1.26-4.82,5.09-8,5.09a3.27,3.27,0,0,1-3.5-3.23c0-4.54,6.79-13.07,7.94-13.07a1.1,1.1,0,0,1,1,.93c0,.16-.16.38-.44.65-1.31,1.42-6.4,7.28-6.4,11.33a1.61,1.61,0,0,0,1.7,1.8c2.57,0,5.69-3.22,8.26-6.34,1.75-2.08,3.06-4.11,4.1-5.37.38-.43.6-.65.82-.65A.9.9,0,0,1,82.56,26.46Z"/><path class="cls-1" d="M97.94,25.75c.6.28,1,.6,1,1.15,0,2.35-4.76,5.75-4.76,8.92a1.31,1.31,0,0,0,1.48,1.42c2.57,0,5.74-2.57,8.59-5.74,0,0,.27-.33.55-.33a.7.7,0,0,1,.6.6,1.22,1.22,0,0,1-.28.55c-3.06,3.34-6.89,6.34-9.79,6.34a2.73,2.73,0,0,1-3-2.73c0-3.39,4.43-6.68,4.43-8.59,0-.27-.28-.49-.66-.77A6.33,6.33,0,0,0,94,25.31c-.22,0-.38.17-.71.61-.82,1.15-3.12,4.1-5.15,6.4a.94.94,0,0,1-.54.27A.65.65,0,0,1,87,32a1.23,1.23,0,0,1,.28-.54A55.46,55.46,0,0,0,93,23.62c.66-1.31,1.59-4.82,3-4.82A1.47,1.47,0,0,1,97.12,20c0,.82-2.36,2.79-2.36,3.61C94.76,23.89,96.84,25.15,97.94,25.75Z"/><path class="cls-1" d="M127.7,15c-8.15,2.52-15.21,4.65-19.26,4.65-5.85,0-9.08-2.46-9.08-7,0-5.26,6.29-10.51,13.51-10.51,8.54,0,13.9,4.65,16.09,11.11,11-3.39,23.91-7.17,33.92-7.17,13.68,0,16.14,7.44,16.14,7.44a3.36,3.36,0,0,1,0,.44.48.48,0,0,1-.49.49c-.33,0-.44-.27-.55-.54,0,0-2.18-6.46-15.15-6.46-10,0-22.6,3.72-33.54,7.06a21.7,21.7,0,0,1,.71,5.69c0,11.49-7.49,16.85-11.21,16.85a3.78,3.78,0,0,1-3.94-4.22c-2.9,3.29-6.68,6-8.65,6a3.1,3.1,0,0,1-3.33-3.12c0-5.25,7.16-13.29,9-13.29a.89.89,0,0,1,.83.88.62.62,0,0,1-.33.49c-2,1.31-7.44,7.16-7.44,11.71,0,1.36.54,1.75,1.42,1.75,1.69,0,4.65-2.36,7.38-5.47,2.85-3.29,4-5.37,4.55-5.37a1,1,0,0,1,.93,1c0,.5-2.41,2.9-2.41,5.53a2.09,2.09,0,0,0,2.24,2.41c3.17,0,9.25-5,9.25-15A21.39,21.39,0,0,0,127.7,15Zm-27-2.35c0,3.72,2.68,5.63,7.71,5.63,3.83,0,10.84-2.08,18.88-4.54-1.92-5.91-6.68-10.23-14.5-10.23C106,3.54,100.73,8.19,100.73,12.68Z"/><path class="cls-1" d="M139.74,33c-2.13,2.47-6.18,6.19-9,6.19a2.65,2.65,0,0,1-2.85-2.85c0-5.36,7.82-12.75,13.84-12.75,2.74,0,3.83,1.43,3.83,2.79,0,1.1-.76,1.86-1.15,1.86a.42.42,0,0,1-.43-.43c0-.39.16-.6.16-1.15S143.9,25,142.26,25c-5.8,0-12.48,7-12.48,11.27,0,.77.38,1.26,1.15,1.26,2.3,0,6-3.39,7.77-5.58,1.48-1.75,2.41-3.34,3-3.34a.94.94,0,0,1,.87.88c0,.38-1.09,1.69-1.09,3.55s1,2.79,2.19,2.79c1.58,0,3.61-1.2,6.45-4.37,0,0,.28-.33.5-.33a.7.7,0,0,1,.65.6,1.24,1.24,0,0,1-.27.55c-3.06,3.34-5.58,5-7.61,5S139.74,35.44,139.74,33Z"/><path class="cls-1" d="M166.71,4.76c1.59-2.13,2.85-3.67,3.34-4.21a1.32,1.32,0,0,1,.87-.55c.61,0,.88.66.88,1s-.11.33-.55.88-1.37,1.64-2.57,3.23a9.6,9.6,0,0,1-1,1.31c-4.16,5.47-16.25,23-16.25,28.38A1.53,1.53,0,0,0,153,36.37c3.83,0,8.21-4.87,8.21-4.87s.27-.33.49-.33a.7.7,0,0,1,.65.6,1.24,1.24,0,0,1-.27.55S157,38,152.49,38a3,3,0,0,1-3.18-3.06c0-5.31,12-23,16.42-28.87A10,10,0,0,1,166.71,4.76Z"/><path class="cls-1" d="M165.73,39.27c-3,0-5.36-1.76-5.36-4.87,0-5.09,6.84-10.62,11-10.62,1.69,0,2.84,1,2.84,2.36,0,3.28-7.33,6.29-11.87,7.44a3,3,0,0,0-.11,1c0,1.92,1.42,3.12,3.45,3.12,6.56,0,11.6-6.18,11.6-6.18s.27-.33.54-.33a.65.65,0,0,1,.61.6,1.22,1.22,0,0,1-.28.55S172.07,39.27,165.73,39.27ZM162.88,32c4.16-1.09,9.74-3.72,9.74-6,0-.16-.16-.66-1-.66C168.63,25.31,164.47,28.6,162.88,32Z"/><path class="cls-1" d="M194.23,47.31a17.76,17.76,0,0,0,10.56-3.94,1.21,1.21,0,0,1,.49-.27c.17,0,.5.27.5.43s-.17.33-.33.5a16.54,16.54,0,0,1-11.22,4.65c-6.4,0-11.81-3.67-11.81-9.69,0-6.45,4.43-9.74,4.43-11.65,0-.27-.28-.49-.66-.77A6.9,6.9,0,0,0,184,25.26c-.22,0-.38.16-.71.6-.82,1.15-3.06,4.16-5.09,6.46a.94.94,0,0,1-.54.27.65.65,0,0,1-.61-.55,1.23,1.23,0,0,1,.28-.54A55.46,55.46,0,0,0,183,23.62c.65-1.31,1.58-4.82,2.95-4.82A1.47,1.47,0,0,1,187.18,20c0,.82-2.36,2.79-2.36,3.61,0,.33,2.08,1.59,3.18,2.19.6.28,1,.6,1,1.15,0,2.35-4.81,5.69-4.81,11.93C184.17,44.41,188.76,47.31,194.23,47.31Z"/></g></g></svg>