<?xml version="1.0" encoding="UTF-8"?>
<svg xmlns="http://www.w3.org/2000/svg" width="131" height="131" viewBox="0 0 131 131" fill="none">
  <rect x="64.7707" y="1.41419" width="90.3292" height="90.1584" transform="rotate(44.646 64.7707 1.41419)" fill="white" stroke="#FFD079" stroke-width="2"></rect>
  <path d="M37.3856 78.9143H35.3532L32.8589 70.4844H34.4294L36.3694 77.39L38.3094 70.4844H39.8915L37.3856 78.9143Z" fill="#FFB020"></path>
  <path d="M41.5533 70.4844H46.311V71.6969H43.1238V74.0296H46.0223V75.2306H43.1238V77.7018H46.5419V78.9143H41.5533V70.4844Z" fill="#FFB020"></path>
  <path d="M48.477 70.4844H51.4217C52.4918 70.4844 53.2347 70.7654 53.6504 71.3274C54.0046 71.8124 54.1816 72.3821 54.1816 73.0365C54.1816 74.199 53.7274 74.9688 52.819 75.346C52.9884 75.5308 53.1346 75.7618 53.2578 76.0389L54.5396 78.9143H52.8652L51.6642 76.1775C51.5564 75.9465 51.4371 75.7887 51.3062 75.704C51.183 75.6193 50.9944 75.577 50.7404 75.577H50.0475V78.9143H48.477V70.4844ZM50.0475 74.3645H51.2369C51.6989 74.3645 52.0414 74.2375 52.2647 73.9834C52.4956 73.7294 52.6111 73.4137 52.6111 73.0365C52.6111 72.6516 52.4956 72.3321 52.2647 72.078C52.0414 71.824 51.6989 71.6969 51.2369 71.6969H50.0475V74.3645Z" fill="#FFB020"></path>
  <path d="M59.7379 74.122C60.5232 74.3221 61.0852 74.607 61.4239 74.9765C61.7626 75.346 61.932 75.9003 61.932 76.6394C61.932 77.3785 61.678 77.9712 61.1699 78.4178C60.6617 78.8566 59.915 79.076 58.9296 79.076C57.9442 79.076 57.232 78.8681 56.7932 78.4524C56.3544 78.029 56.085 77.417 55.9849 76.6163L57.2436 76.42C57.2898 76.8742 57.4438 77.2283 57.7055 77.4824C57.975 77.7287 58.3483 77.8519 58.8256 77.8519C59.8496 77.8519 60.3615 77.4631 60.3615 76.6856C60.3615 76.3546 60.2653 76.1044 60.0728 75.935C59.8803 75.7656 59.5108 75.6116 58.9642 75.4731L58.306 75.3114C57.5361 75.1189 56.9857 74.8341 56.6547 74.4569C56.3236 74.0796 56.1581 73.5176 56.1581 72.7709C56.1581 72.0164 56.4006 71.4198 56.8856 70.981C57.3706 70.5422 58.0866 70.3228 59.0335 70.3228C59.9881 70.3228 60.6733 70.5345 61.089 70.9579C61.5124 71.3736 61.7742 71.9818 61.8743 72.7824L60.6271 72.9787C60.527 72.0241 60.0343 71.5468 59.149 71.5468C58.664 71.5468 58.306 71.6546 58.075 71.8702C57.8441 72.078 57.7286 72.3552 57.7286 72.7016C57.7286 73.048 57.8171 73.3059 57.9942 73.4753C58.1713 73.6447 58.51 73.7948 59.0104 73.9257L59.7379 74.122Z" fill="#FFB020"></path>
  <path d="M65.5873 70.4844H67.6313L70.218 78.9143H68.7052L67.9893 76.5817H65.2178L64.5134 78.9143H62.9891L65.5873 70.4844ZM66.6035 71.9741L65.5758 75.3922H67.6313L66.6035 71.9741Z" fill="#FFB020"></path>
  <path d="M70.3386 71.6738V70.4844H76.3319V71.6738H74.1263V78.9143H72.5558V71.6738H70.3386Z" fill="#FFB020"></path>
  <path d="M77.8522 70.4844H79.4227V78.9143H77.8522V70.4844Z" fill="#FFB020"></path>
  <path d="M82.0581 78.9143V70.4844H83.6286V77.7018H86.504V78.9143H82.0581Z" fill="#FFB020"></path>
  <path d="M88.1022 70.4844H92.8599V71.6969H89.6727V74.0296H92.5712V75.2306H89.6727V77.7018H93.0909V78.9143H88.1022V70.4844Z" fill="#FFB020"></path>
  <path d="M53.2044 67.8229C53.9001 67.2964 54.3703 65.6227 54.3703 65.6227H55.6866C56.1379 55.2613 48.7288 59.8497 48.7288 59.8497L44.1592 59.6992C44.1592 58.7026 45.1747 58.2889 45.1747 58.2889L47.5629 58.1384L47.845 56.0699L43.7644 55.7502L44.1028 51.4439L44.1216 51.2559L36.7877 51.8576L36.186 55.863L34.7568 56.1263C34.5312 56.1639 34.3807 56.352 34.3807 56.5964V57.2734C34.3807 57.4614 34.4936 57.6307 34.6628 57.7059L35.8851 58.2324L34.1551 60.0001L48.6536 60.4702L47.6193 64.3064L47.8826 60.7711L33.4029 60.6395C33.1772 60.6395 32.9892 60.8087 32.9704 61.0344L32.7664 63.9442C32.7651 64.1908 32.7447 64.4279 32.7446 64.5697H34.3055L35.2458 68.3682H91.6978L53.2044 67.8229ZM37.4459 59.3607H36.6185L37.3895 52.685H38.1605L37.4459 59.3607ZM39.1008 59.3607L38.2733 59.3983L38.7811 52.7038L39.5333 52.6662L39.1008 59.3607ZM40.812 59.3607L39.9846 59.3795L40.6051 52.7038L41.3573 52.685L40.812 59.3607ZM42.4104 59.3607H41.583L42.354 52.685H43.125L42.4104 59.3607ZM51.3239 66.1117C50.4589 66.1117 49.7443 65.0962 49.7443 63.8175C49.7443 62.5576 50.4589 61.5233 51.3239 61.5233C52.1889 61.5233 52.9035 62.5387 52.9035 63.8175C52.9035 65.0962 52.2077 66.1117 51.3239 66.1117ZM51.4367 62.5576C50.9478 62.5576 50.5529 63.1405 50.5529 63.8551C50.5529 64.5697 50.9478 65.1526 51.4367 65.1526C51.9256 65.1526 52.3205 64.5697 52.3205 63.8551C52.3205 63.1405 51.9256 62.5576 51.4367 62.5576Z" fill="#FFB020"></path>
  <path d="M45.8704 50.1653L56.0437 49.9396L57.2849 48.6045L55.9497 53.0048L47.6756 51.8765L47.7696 50.6354L45.8704 50.1653Z" fill="#FFB020"></path>
  <path d="M50.3084 49.0744C50.3084 49.0744 52.1137 49.0556 53.2044 48.0778C53.2044 48.0778 53.5241 47.8897 53.9002 46.8179L64.6565 44.8058V61.4292L65.2959 44.6177C65.2959 44.6177 69.4141 44.016 70.4296 45.163L93.3339 57.0477L76.9549 50.5788L90.532 56.728L75.789 51.1054L91.3406 57.8751L75.9958 52.6286L90.0806 57.9315L69.0192 51.2934L68.85 59.8496L92.5629 66.0364L79.738 65.0021L97.4145 67.8229L57.5107 66.9954L57.3791 65.8107C57.3791 65.8107 56.7021 65.6603 56.0815 65.6603C56.0815 65.6603 58.3381 58.4204 51.3803 57.0101L54.5772 57.2169L47.845 55.5809L54.4267 56.3331L45.3628 54.2646L54.1258 55.4493L47.168 53.5876L54.5583 54.415L47.3749 52.685L56.5704 53.9449L57.6987 50.2968L61.6101 51.0113L61.5161 54.4902L58.3193 54.0953L58.2253 60.9591L62.4188 61.4856L62.3247 49.8643C62.3247 49.8643 57.7175 48.6795 54.1634 49.0556C50.6469 49.4129 50.3084 49.0744 50.3084 49.0744Z" fill="#FFB020"></path>
  <path d="M52.3207 63.8551C52.3207 64.5697 51.9257 65.1527 51.4368 65.1527C50.9479 65.1527 50.553 64.5697 50.553 63.8551C50.553 63.1406 50.9479 62.5576 51.4368 62.5576C51.9257 62.5576 52.3207 63.1406 52.3207 63.8551Z" fill="#FFB020"></path>
  <path d="M52.3207 63.8551C52.3207 64.5697 51.9257 65.1527 51.4368 65.1527C50.9479 65.1527 50.553 64.5697 50.553 63.8551C50.553 63.1406 50.9479 62.5576 51.4368 62.5576C51.9257 62.5576 52.3207 63.1406 52.3207 63.8551Z" fill="#FFB020"></path>
  <path d="M38.1418 84.0557C38.1418 84.2371 38.1259 84.4042 38.0941 84.5572C38.0641 84.7083 38.0234 84.8461 37.9722 84.9705C37.921 85.095 37.8619 85.2061 37.7948 85.3039C37.7294 85.3999 37.6597 85.4826 37.5855 85.552C37.5007 85.6267 37.4072 85.6889 37.3047 85.7387C37.2041 85.7885 37.0964 85.8285 36.9816 85.8587C36.8686 85.8871 36.7485 85.9076 36.6213 85.92C36.496 85.9325 36.3662 85.9387 36.232 85.9387H35.2307V82.1728H36.2955C36.4227 82.1728 36.5489 82.1799 36.6743 82.1941C36.7997 82.2066 36.9215 82.2306 37.0399 82.2661C37.1599 82.3017 37.2738 82.3506 37.3815 82.4128C37.491 82.4751 37.5917 82.556 37.6835 82.6555C37.8354 82.8333 37.9493 83.0431 38.0252 83.285C38.1029 83.525 38.1418 83.7819 38.1418 84.0557ZM37.5882 84.0744C37.5882 84.0033 37.5837 83.9197 37.5749 83.8237C37.5661 83.7277 37.5493 83.629 37.5246 83.5277C37.4999 83.4263 37.4645 83.3259 37.4186 83.2263C37.3745 83.1267 37.3171 83.0369 37.2465 82.9569C37.1352 82.8342 37.0028 82.7498 36.8491 82.7035C36.6973 82.6555 36.5154 82.6315 36.3035 82.6315H35.7472V85.4826H36.1949C36.292 85.4826 36.3865 85.4773 36.4783 85.4666C36.5719 85.456 36.6602 85.44 36.7432 85.4186C36.8262 85.3955 36.9039 85.3662 36.9763 85.3306C37.0504 85.295 37.1158 85.2524 37.1723 85.2026C37.2553 85.1261 37.3233 85.0399 37.3763 84.9439C37.431 84.8479 37.4734 84.7492 37.5034 84.6478C37.5352 84.5447 37.5573 84.4442 37.5696 84.3465C37.582 84.2469 37.5882 84.1562 37.5882 84.0744Z" fill="#0B141C"></path>
  <path d="M43.9054 85.9387V82.1728H44.4245V85.9387H43.9054Z" fill="#0B141C"></path>
  <path d="M51.1894 85.5413C51.3342 85.5413 51.4587 85.5253 51.5629 85.4933C51.6688 85.4613 51.7553 85.4177 51.8224 85.3626C51.8913 85.3057 51.9416 85.2399 51.9734 85.1652C52.007 85.0888 52.0238 85.0061 52.0238 84.9172C52.0238 84.8283 52.0087 84.751 51.9787 84.6852C51.9487 84.6176 51.901 84.5572 51.8357 84.5038C51.7721 84.4505 51.6891 84.3998 51.5867 84.3518C51.4843 84.3038 51.3616 84.254 51.2185 84.2024C51.0313 84.1349 50.8733 84.0637 50.7444 83.9891C50.6172 83.9126 50.5139 83.8299 50.4345 83.741C50.355 83.6503 50.2976 83.5517 50.2623 83.445C50.2287 83.3365 50.212 83.2165 50.212 83.0849C50.212 82.9231 50.242 82.7809 50.302 82.6582C50.3621 82.5337 50.4442 82.4297 50.5484 82.3461C50.6543 82.2626 50.7779 82.1995 50.9192 82.1568C51.0622 82.1141 51.2159 82.0928 51.3801 82.0928C51.5514 82.0928 51.7289 82.1221 51.9125 82.1808C52.0962 82.2377 52.2842 82.3301 52.4767 82.4582L52.2727 82.8476C52.112 82.7444 51.9575 82.6706 51.8092 82.6262C51.6626 82.58 51.5231 82.5568 51.3907 82.5568C51.1753 82.5568 51.0093 82.6031 50.8927 82.6955C50.7762 82.7862 50.7179 82.9125 50.7179 83.0743C50.7179 83.1649 50.7303 83.2423 50.755 83.3063C50.7797 83.3703 50.8203 83.4281 50.8768 83.4797C50.9333 83.5294 51.0066 83.5757 51.0967 83.6183C51.1885 83.6592 51.3015 83.7028 51.4357 83.749C51.6706 83.829 51.8595 83.9099 52.0026 83.9917C52.1456 84.0735 52.256 84.1589 52.3337 84.2478C52.4114 84.3367 52.4626 84.4318 52.4873 84.5331C52.5138 84.6345 52.527 84.7465 52.527 84.8692C52.527 85.0452 52.497 85.2035 52.437 85.3439C52.3787 85.4844 52.2939 85.6044 52.1827 85.704C52.0714 85.8018 51.9346 85.8774 51.7721 85.9307C51.6114 85.9823 51.4278 86.008 51.2212 86.008C51.0605 86.008 50.8883 85.9832 50.7046 85.9334C50.521 85.8818 50.3276 85.8009 50.1246 85.6907L50.2941 85.2746C50.4654 85.3635 50.6243 85.4302 50.7709 85.4746C50.9192 85.5191 51.0587 85.5413 51.1894 85.5413Z" fill="#0B141C"></path>
  <path d="M60.6772 83.245C60.6772 83.3961 60.6543 83.5401 60.6083 83.677C60.5624 83.8121 60.4847 83.9313 60.3752 84.0344C60.2675 84.1375 60.1236 84.2202 59.9435 84.2824C59.7634 84.3429 59.54 84.3731 59.2733 84.3731H58.786V85.9387H58.2668V82.1728H59.3713C59.5585 82.1728 59.7316 82.1915 59.8905 82.2288C60.0494 82.2661 60.1872 82.3275 60.3037 82.4128C60.4203 82.4964 60.5112 82.6066 60.5766 82.7435C60.6437 82.8805 60.6772 83.0476 60.6772 83.245ZM58.786 83.9197H59.0376C59.1259 83.9197 59.2142 83.9188 59.3025 83.9171C59.3925 83.9153 59.4782 83.9082 59.5594 83.8957C59.6406 83.8833 59.7157 83.8637 59.7846 83.837C59.8552 83.8104 59.9161 83.7721 59.9673 83.7224C60.0203 83.6708 60.0609 83.6068 60.0892 83.5303C60.1192 83.4521 60.1342 83.357 60.1342 83.245C60.1342 83.1152 60.1121 83.0102 60.068 82.9302C60.0238 82.8502 59.9656 82.788 59.8932 82.7435C59.8208 82.6973 59.7378 82.6662 59.6442 82.6502C59.5506 82.6342 59.4535 82.6262 59.3528 82.6262H58.786V83.9197Z" fill="#0B141C"></path>
  <path d="M65.6303 85.768L67.0447 82.1728H67.556L68.9519 85.7813V85.9387H68.4513L68.0486 84.8825H66.5044L66.0965 85.9387H65.6303V85.768ZM67.0289 83.4637L66.6766 84.4238H67.8818L67.5374 83.4637L67.2858 82.7435L67.0289 83.4637Z" fill="#0B141C"></path>
  <path d="M75.4651 85.9387H74.9486V82.6395H73.7884V82.1728H76.6253V82.6395H75.4651V85.9387Z" fill="#0B141C"></path>
  <path d="M84.6775 85.6907C84.4656 85.7991 84.2642 85.8791 84.0735 85.9307C83.8828 85.9823 83.7027 86.008 83.5332 86.008C83.346 86.008 83.1747 85.9832 83.0193 85.9334C82.8657 85.8818 82.7279 85.8116 82.6061 85.7227C82.4842 85.6338 82.3774 85.5289 82.2856 85.408C82.1938 85.2853 82.1178 85.1528 82.0578 85.0106C81.9977 84.8683 81.9527 84.719 81.9227 84.5625C81.8927 84.4042 81.8777 84.2451 81.8777 84.0851C81.8777 83.9197 81.8927 83.7561 81.9227 83.5943C81.9545 83.4308 82.0013 83.2752 82.0631 83.1276C82.1249 82.98 82.2017 82.8431 82.2935 82.7169C82.3871 82.5906 82.4948 82.4813 82.6167 82.3888C82.7385 82.2964 82.8745 82.2243 83.0246 82.1728C83.1765 82.1194 83.3425 82.0928 83.5226 82.0928C83.6444 82.0928 83.7619 82.107 83.8749 82.1354C83.9897 82.1639 84.0965 82.2092 84.1954 82.2715C84.2943 82.3337 84.3826 82.4164 84.4603 82.5195C84.5397 82.6209 84.6033 82.7444 84.651 82.8902L84.1874 83.0022C84.1609 82.9151 84.1247 82.8431 84.0788 82.7862C84.0347 82.7293 83.9844 82.684 83.9278 82.6502C83.8713 82.6164 83.8087 82.5924 83.7398 82.5782C83.6727 82.564 83.6029 82.5568 83.5305 82.5568C83.3522 82.5568 83.1941 82.5986 83.0564 82.6822C82.9204 82.7658 82.8056 82.8778 82.712 83.0182C82.6185 83.1587 82.5478 83.3214 82.5001 83.5063C82.4525 83.6895 82.4286 83.8806 82.4286 84.0797C82.4286 84.2629 82.4516 84.4425 82.4975 84.6185C82.5434 84.7927 82.614 84.9483 82.7094 85.0852C82.8048 85.2221 82.9248 85.3324 83.0696 85.416C83.2144 85.4995 83.3857 85.5413 83.5835 85.5413C83.7159 85.5413 83.8581 85.52 84.01 85.4773C84.1618 85.4328 84.3261 85.3671 84.5026 85.2799L84.6775 85.6907Z" fill="#0B141C"></path>
  <path d="M93.0846 85.9387H92.5628V84.2318H90.8649V85.9387H90.3431V82.1675H90.8649V83.757H92.5628V82.1675H93.0846V85.9387Z" fill="#0B141C"></path>
  <path fill-rule="evenodd" clip-rule="evenodd" d="M95.1047 70.4849C94.8286 70.4849 94.6047 70.7087 94.6047 70.9849V85.4617C94.6047 85.7378 94.8286 85.9617 95.1047 85.9617H96.9606C97.2367 85.9617 97.4606 85.7378 97.4606 85.4617V70.9849C97.4606 70.7087 97.2367 70.4849 96.9606 70.4849H95.1047ZM95.3864 74.3541H96.1571C96.5773 74.3541 96.8264 74.1474 96.8264 73.8011V73.7983C96.8264 73.5383 96.6553 73.3535 96.3857 73.3193V73.2974C96.5759 73.2631 96.7265 73.077 96.7265 72.873V72.8703C96.7265 72.5691 96.5047 72.3789 96.142 72.3789H95.3864V74.3541ZM96.09 72.5965C96.335 72.5965 96.4774 72.7129 96.4774 72.9127V72.9154C96.4774 73.1235 96.3254 73.2303 96.027 73.2303H95.6328V72.5965H96.09ZM96.0968 73.4424C96.4117 73.4424 96.5732 73.5588 96.5732 73.786V73.7888C96.5732 74.016 96.4171 74.1364 96.1201 74.1364H95.6328V73.4424H96.0968ZM95.4165 79.1906H95.6629V78.4856H96.1612C96.5321 78.4856 96.7949 78.2242 96.7949 77.8491V77.8464C96.7949 77.4714 96.5321 77.2154 96.1612 77.2154H95.4165V79.1906ZM96.0982 77.4344C96.3802 77.4344 96.5431 77.5891 96.5431 77.8491V77.8519C96.5431 78.112 96.3802 78.2666 96.0982 78.2666H95.6629V77.4344H96.0982ZM96.9619 83.0402C96.9619 83.6698 96.6197 84.0736 96.0558 84.0736C95.4891 84.0736 95.1496 83.6712 95.1496 83.0402V83.0374C95.1496 82.4037 95.4973 82.0053 96.0558 82.0053C96.617 82.0053 96.9619 82.405 96.9619 83.0374V83.0402ZM95.4015 83.0402C95.4015 83.5288 95.6451 83.8464 96.0558 83.8464C96.4609 83.8464 96.7101 83.5288 96.7101 83.0402V83.0374C96.7101 82.5447 96.4596 82.2326 96.0558 82.2326C95.6533 82.2326 95.4015 82.5447 95.4015 83.0374V83.0402Z" fill="#FFB020"></path>
</svg>
